<?xml version="1.0" standalone="no"?>
<!DOCTYPE svg PUBLIC "-//W3C//DTD SVG 20010904//EN"
 "http://www.w3.org/TR/2001/REC-SVG-20010904/DTD/svg10.dtd">
<svg version="1.0" xmlns="http://www.w3.org/2000/svg"
 width="500.000000pt" height="500.000000pt" viewBox="0 0 500.000000 500.000000"
 preserveAspectRatio="xMidYMid meet">
<metadata>
Created by potrace 1.11, written by Peter Selinger 2001-2013
</metadata>
<g transform="translate(0.000000,500.000000) scale(0.100000,-0.100000)"
fill="#000000" stroke="none">
<path d="M2488 4706 c-1 -2 -57 -6 -123 -9 -338 -16 -701 -128 -1004 -309
-459 -276 -828 -753 -975 -1260 -29 -102 -64 -264 -71 -338 -3 -30 -8 -73 -11
-95 -12 -82 -5 -372 11 -475 2 -14 7 -45 10 -70 60 -424 287 -871 603 -1189
327 -328 700 -531 1135 -616 175 -34 199 -37 412 -40 181 -3 341 13 520 50
196 40 522 179 705 300 338 224 628 559 796 921 92 200 171 482 191 689 14
138 6 525 -11 554 -2 3 -6 29 -10 58 -9 73 -58 261 -100 378 -183 509 -580
960 -1061 1203 -166 84 -394 168 -505 187 -19 3 -42 8 -50 10 -20 6 -65 13
-120 21 -25 3 -48 8 -52 10 -4 3 -65 7 -135 10 -70 3 -133 7 -140 9 -6 2 -13
2 -15 1z m282 -151 c19 -3 62 -10 95 -16 89 -15 302 -75 392 -111 116 -46 286
-136 390 -206 380 -255 662 -623 807 -1054 79 -232 111 -425 110 -673 -1 -191
-13 -300 -54 -470 -88 -371 -274 -704 -546 -980 -96 -97 -126 -123 -229 -201
-207 -156 -435 -267 -695 -340 -286 -81 -654 -92 -961 -29 -297 60 -594 196
-837 383 -99 76 -274 246 -351 341 -195 239 -347 551 -410 844 -23 105 -25
120 -41 242 -10 80 -7 434 5 490 3 17 13 71 22 120 57 324 218 661 444 930
144 172 274 289 443 400 190 125 354 202 561 263 89 26 289 66 385 75 55 6
431 0 470 -8z"/>
<path d="M2588 4181 c0 -9 -2 -25 -3 -36 -2 -36 -20 -173 -36 -270 -14 -92
-13 -95 21 -95 17 0 30 5 31 13 2 36 10 101 12 103 1 0 19 -1 39 -3 35 -5 40
-10 70 -72 31 -62 35 -66 71 -69 40 -3 45 2 24 27 -8 9 -26 37 -41 64 -25 44
-26 48 -9 54 89 34 107 205 27 258 -13 8 -64 21 -114 28 -81 12 -90 12 -92 -2z
m181 -87 c19 -23 22 -34 17 -68 -12 -69 -43 -91 -118 -81 l-49 7 5 37 c2 20 8
60 12 89 l7 54 51 -5 c39 -5 56 -12 75 -33z"/>
<path d="M2354 4128 c13 -134 20 -230 25 -334 1 -18 7 -21 32 -20 l31 1 -6 60
c-9 85 -17 209 -21 285 l-2 65 -33 3 -32 3 6 -63z"/>
<path d="M2085 4143 c-11 -2 -30 -6 -42 -8 -37 -8 -82 -54 -89 -90 -16 -89 39
-145 143 -145 34 0 73 -4 86 -9 25 -10 40 -42 30 -66 -15 -41 -103 -62 -168
-39 -36 12 -37 12 -31 -9 3 -12 6 -25 6 -29 0 -11 61 -28 99 -28 42 0 108 29
133 56 38 43 24 139 -24 165 -13 7 -61 16 -107 19 -90 7 -111 20 -111 67 0 47
90 78 154 53 24 -9 26 -8 26 20 0 16 -3 31 -7 33 -14 8 -78 15 -98 10z"/>
<path d="M2992 4007 c-18 -56 -48 -144 -67 -195 l-34 -93 26 -10 c32 -12 36
-8 57 61 10 30 38 113 63 184 44 123 45 130 27 143 -10 7 -23 13 -28 13 -6 0
-26 -46 -44 -103z"/>
<path d="M3211 3964 c-39 -35 -54 -89 -36 -130 7 -16 32 -49 54 -74 52 -57 60
-85 33 -113 -19 -18 -25 -19 -59 -9 -42 12 -81 49 -106 97 l-15 30 -13 -28
c-11 -25 -11 -34 6 -65 25 -45 89 -91 135 -97 48 -6 97 20 120 64 25 51 17 80
-46 152 -30 34 -54 71 -54 81 0 76 89 78 152 3 10 -11 17 -26 18 -32 0 -19 14
-16 34 6 17 18 17 21 1 48 -27 45 -91 86 -145 91 -41 4 -51 1 -79 -24z"/>
<path d="M1635 3961 c-68 -42 -89 -94 -69 -172 23 -92 108 -201 168 -218 92
-24 188 44 188 134 0 87 -79 222 -153 260 -38 20 -98 19 -134 -4z m157 -95
c87 -118 94 -208 17 -235 -18 -6 -38 -11 -45 -11 -27 0 -85 64 -119 132 -46
93 -39 135 29 163 42 18 81 1 118 -49z"/>
<path d="M2407 3524 c-1 -1 -22 -5 -47 -8 -332 -45 -629 -259 -779 -562 -158
-320 -140 -689 47 -994 50 -82 68 -104 157 -192 296 -297 760 -377 1140 -199
140 65 235 138 372 285 26 28 107 161 133 219 15 34 37 93 49 131 179 581
-199 1196 -803 1307 -51 9 -262 20 -269 13z m218 -68 c302 -37 591 -241 730
-516 33 -65 73 -169 80 -207 2 -15 9 -50 14 -78 17 -84 6 -308 -18 -400 -116
-425 -506 -721 -943 -714 -391 6 -731 235 -879 591 -84 204 -97 452 -32 653
47 147 130 282 242 395 138 140 270 212 486 266 11 3 45 7 75 10 30 3 56 7 57
8 5 4 128 -1 188 -8z"/>
<path d="M2514 3210 c-57 -23 -85 -120 -48 -162 16 -16 15 -18 -2 -24 -76 -27
-139 -56 -176 -82 -91 -62 -198 -190 -213 -254 -6 -25 -2 -31 44 -59 l50 -31
-19 -37 c-11 -20 -33 -54 -50 -76 -17 -23 -33 -58 -37 -79 -5 -32 -2 -42 24
-69 16 -18 29 -39 28 -47 -1 -8 2 -24 6 -36 5 -13 1 -28 -12 -45 -10 -13 -35
-76 -55 -139 -48 -153 -56 -166 -99 -174 -21 -4 -41 -16 -51 -31 -15 -23 -15
-27 0 -50 14 -21 24 -25 63 -25 93 0 142 62 193 248 28 99 50 132 90 132 25 0
30 -5 36 -35 10 -53 60 -105 117 -119 66 -17 99 -10 146 30 50 43 62 81 64
197 l2 92 100 2 c55 2 106 5 113 8 27 10 115 248 126 340 2 16 4 33 5 38 0 4
13 5 28 3 35 -7 85 18 105 52 41 69 -11 162 -90 162 -46 -1 -71 -15 -108 -60
-24 -30 -190 -225 -216 -255 -16 -18 4 27 76 170 57 114 81 151 128 196 48 48
58 62 58 91 0 46 -34 78 -82 78 -39 0 -51 -11 -90 -80 -15 -25 -57 -75 -95
-112 -66 -65 -190 -168 -201 -168 -5 0 39 52 59 70 39 35 127 184 135 227 14
75 -78 143 -152 113z m79 -669 c34 -27 15 -85 -30 -94 -61 -14 -58 -1 -63
-273 0 -32 -24 -56 -54 -56 -36 0 -54 27 -54 81 0 64 -23 83 -103 84 l-64 2 2
42 c1 32 -4 46 -23 64 l-23 22 28 36 c16 20 37 53 46 73 l18 36 152 -2 c112
-1 156 -5 168 -15z"/>
<path d="M2283 2497 c-9 -15 30 -47 58 -47 26 0 59 33 46 46 -8 8 -99 10 -104
1z"/>
<path d="M2720 2100 c-11 -11 -20 -26 -20 -33 0 -26 -61 -98 -107 -127 -38
-24 -88 -39 -148 -45 -24 -2 -94 18 -135 39 -50 26 -78 26 -97 0 -30 -41 -11
-71 67 -111 50 -26 64 -28 165 -28 101 0 115 2 168 29 133 66 243 238 181 283
-25 19 -51 16 -74 -7z"/>
<path d="M3568 3482 c-10 -2 -18 -7 -19 -10 0 -4 -2 -16 -4 -27 -8 -42 54 -64
74 -27 21 40 -7 74 -51 64z"/>
<path d="M1342 3408 c-15 -15 -15 -39 1 -58 13 -17 21 -18 55 -6 17 6 21 13
18 32 -3 13 -7 28 -11 34 -9 14 -48 13 -63 -2z"/>
<path d="M3840 3182 c-102 -36 -187 -67 -189 -68 -2 -2 0 -15 3 -29 5 -20 11
-25 24 -20 38 16 314 115 320 115 3 0 -64 -47 -149 -103 l-155 -104 14 -41
c11 -35 17 -41 35 -37 12 2 58 7 102 10 176 13 211 16 235 20 22 4 23 3 5 -5
-11 -5 -89 -33 -172 -62 -154 -53 -166 -62 -143 -98 8 -13 14 -13 42 -2 18 8
104 39 191 69 174 62 165 54 137 128 -10 26 -11 26 -88 20 -42 -4 -88 -8 -102
-11 -14 -2 -63 -6 -110 -10 l-85 -6 50 32 c199 128 265 174 261 184 -3 6 -10
28 -17 49 -7 20 -15 37 -18 36 -3 -1 -89 -31 -191 -67z"/>
<path d="M976 3145 c-39 -21 -50 -38 -81 -124 -24 -67 -27 -103 -8 -100 4 1
11 0 16 -1 4 -1 10 -3 15 -4 4 -1 39 -12 77 -26 39 -13 70 -22 70 -21 0 1 33
-12 73 -28 81 -34 126 -42 127 -24 0 6 3 15 7 19 12 11 -12 34 -36 34 -12 0
-27 5 -34 12 -7 7 -12 8 -12 4 0 -5 -6 -3 -14 3 -12 10 -11 19 3 59 34 90 14
149 -63 187 -57 29 -98 31 -140 10z m125 -68 c27 -18 34 -30 35 -58 1 -20 -5
-52 -13 -72 -14 -33 -16 -35 -41 -26 -15 6 -34 12 -42 14 -8 2 -28 9 -45 16
-16 7 -33 13 -37 13 -26 4 -1 96 33 119 29 21 74 19 110 -6z"/>
<path d="M831 2740 c-7 -4 -11 -18 -9 -31 2 -20 9 -24 38 -26 293 -16 300 -17
316 -62 12 -30 -3 -96 -21 -96 -5 0 -14 -3 -20 -7 -11 -7 -148 -3 -257 7 l-68
6 0 -33 0 -33 103 -4 c212 -8 258 -6 267 9 6 8 10 11 10 5 0 -5 11 7 24 28 17
28 23 51 22 91 -2 88 -40 125 -136 131 -160 11 -221 16 -238 20 -10 2 -24 0
-31 -5z"/>
<path d="M3780 2666 c0 -33 3 -36 38 -42 64 -11 67 -16 67 -86 0 -34 -4 -64
-9 -65 -5 -1 -12 -6 -15 -11 -4 -6 -18 -12 -33 -14 -35 -5 -42 -13 -44 -49 -2
-27 13 -38 30 -22 3 4 12 8 19 9 7 2 84 27 172 57 164 55 170 57 183 57 14 0
7 73 -8 81 -13 6 -355 102 -370 104 -3 0 -11 4 -17 8 -10 6 -13 -1 -13 -27z
m255 -97 c50 -16 52 -16 72 -18 30 -2 1 -18 -74 -40 -99 -29 -98 -30 -98 30
l0 50 30 -5 c16 -2 48 -10 70 -17z"/>
<path d="M984 2320 c-104 -36 -130 -62 -141 -137 -6 -42 27 -116 62 -139 72
-47 266 -12 333 60 30 34 33 41 31 96 -1 33 -6 60 -11 60 -4 0 -8 7 -8 15 0 8
-18 26 -39 41 -56 36 -133 38 -227 4z m176 -40 c3 -1 8 -2 12 -1 15 2 41 -52
41 -85 0 -47 -25 -71 -101 -94 -130 -40 -212 -16 -212 63 0 61 44 96 144 114
11 2 21 5 23 7 3 3 85 0 93 -4z"/>
<path d="M3770 2296 c0 -8 -3 -21 -6 -30 -4 -12 8 -18 55 -27 53 -11 60 -16
55 -32 -3 -11 -7 -25 -8 -31 -4 -24 -17 -33 -76 -51 -53 -16 -63 -23 -76 -53
-8 -19 -12 -37 -9 -40 2 -3 36 9 75 26 l69 31 22 -39 c30 -53 109 -87 173 -74
36 6 100 60 90 76 -3 4 0 8 6 8 6 0 9 4 6 8 -3 5 2 31 10 58 25 84 25 90 -5
92 -14 1 -48 9 -76 17 -27 7 -65 17 -84 20 -19 3 -42 10 -52 16 -11 5 -19 8
-19 5 0 -2 -28 4 -62 15 -76 23 -88 23 -88 5z m210 -97 c0 -3 6 -6 13 -7 6 0
23 -3 37 -6 14 -3 38 -8 53 -12 21 -4 26 -10 22 -24 -3 -10 -8 -28 -10 -40 -5
-25 -31 -69 -43 -71 -58 -11 -113 6 -131 40 -10 19 -9 71 3 108 5 14 14 20 31
19 14 0 25 -4 25 -7z"/>
<path d="M1280 1981 c-35 -87 -42 -94 -74 -77 -35 18 -94 7 -146 -28 -39 -26
-55 -50 -64 -100 -4 -21 60 -165 84 -189 7 -8 47 8 60 24 3 3 20 12 38 20 17
8 32 18 32 22 0 5 4 6 9 2 5 -3 12 -1 16 4 3 6 52 34 109 62 l103 52 -11 29
c-8 22 -15 27 -31 22 -11 -4 -22 -10 -25 -14 -3 -4 -21 -14 -41 -23 l-36 -15
-12 33 c-10 27 -9 40 5 74 9 23 20 41 26 41 5 0 7 4 3 9 -3 5 -1 12 5 16 15 9
12 31 -8 65 l-19 30 -23 -59z m-50 -176 c0 -7 4 -15 9 -17 4 -1 12 -13 16 -26
6 -19 2 -25 -24 -35 -17 -6 -31 -15 -31 -19 0 -4 -9 -8 -20 -8 -11 0 -20 -4
-20 -8 0 -8 -43 -32 -55 -32 -8 0 -51 95 -49 108 1 6 2 18 3 25 1 15 50 46 89
57 30 8 82 -21 82 -45z"/>
<path d="M3663 1954 c-18 -29 -16 -31 52 -69 28 -15 53 -32 57 -39 14 -21 8
-44 -12 -49 -11 -3 -20 -1 -20 5 0 5 -6 6 -12 2 -7 -5 -44 -9 -82 -10 -63 -2
-73 -5 -92 -29 -21 -26 -29 -59 -12 -49 11 7 39 11 133 19 124 11 142 10 142
-7 0 -7 12 -38 26 -68 13 -30 32 -73 40 -95 l14 -39 20 38 20 38 -49 100 c-28
55 -47 102 -45 105 5 4 47 -16 57 -28 3 -3 12 -9 20 -12 8 -4 30 -16 49 -27
32 -20 34 -20 47 -3 22 29 16 40 -36 65 -19 10 -57 31 -85 48 -27 17 -61 36
-75 42 -14 7 -51 29 -83 50 l-57 37 -17 -25z"/>
<path d="M1410 1638 c-43 -40 -78 -76 -79 -79 -3 -14 102 -110 115 -105 29 11
27 36 -5 65 -18 17 -32 33 -32 37 -1 10 71 52 84 50 50 -11 66 -21 80 -52 21
-44 8 -80 -49 -140 -85 -88 -138 -105 -193 -58 -17 14 -36 43 -42 65 -14 44
-13 43 -41 28 -16 -8 -19 -17 -14 -40 7 -36 47 -99 64 -99 6 0 12 -4 12 -8 0
-14 49 -32 88 -32 38 0 85 24 140 71 31 27 94 113 101 139 22 77 -40 166 -118
172 -31 2 -40 12 -21 23 13 8 13 35 -1 35 -6 0 -46 -33 -89 -72z"/>
<path d="M3408 1598 c-64 -67 -75 -84 -67 -100 5 -10 14 -18 19 -18 5 0 36 28
68 62 l60 61 48 -46 49 -46 -47 -46 c-51 -49 -57 -65 -33 -85 13 -11 23 -5 66
40 l51 52 43 -42 42 -42 -58 -59 c-52 -53 -57 -62 -46 -79 6 -11 15 -20 19
-20 4 0 43 37 87 81 l80 81 -146 142 c-79 77 -148 142 -151 143 -4 2 -42 -34
-84 -79z"/>
<path d="M3161 1406 c-9 -11 -9 -17 1 -27 7 -8 19 -25 26 -39 6 -14 43 -74 81
-135 38 -60 67 -113 65 -117 -3 -5 -23 -17 -45 -28 -43 -22 -49 -39 -21 -56
15 -10 26 -6 60 17 23 16 42 26 42 23 0 -2 6 0 13 6 6 6 37 27 69 47 52 33 55
38 45 60 -10 22 -37 33 -37 14 0 -5 -15 -18 -32 -30 l-33 -20 -22 27 c-12 15
-22 30 -23 34 0 10 -64 113 -72 116 -5 2 -8 9 -8 17 0 7 -7 18 -15 25 -8 7
-12 16 -9 21 3 5 1 9 -4 9 -5 0 -14 11 -20 25 -13 27 -43 33 -61 11z"/>
<path d="M2964 1311 c-3 -3 -10 -7 -15 -7 -5 -1 -12 -2 -15 -3 -4 0 -1 -8 6
-16 7 -8 9 -15 6 -15 -4 0 -1 -12 7 -27 18 -35 27 -57 67 -163 17 -47 36 -93
41 -102 5 -10 9 -24 9 -31 0 -25 21 -37 44 -24 11 7 22 13 24 14 2 0 -5 21
-16 45 -23 52 -30 71 -28 79 0 3 -5 13 -13 22 -7 10 -10 17 -6 17 4 0 0 11 -9
25 -9 14 -14 25 -12 25 3 0 -6 24 -18 53 -13 28 -26 66 -30 83 -6 28 -27 40
-42 25z"/>
<path d="M1832 1239 c-11 -17 5 -63 21 -60 4 0 16 1 27 1 26 0 42 38 26 62
-13 22 -60 20 -74 -3z"/>
<path d="M2799 1258 c-6 -21 -6 -45 0 -62 5 -11 11 -45 15 -75 4 -30 9 -65 12
-78 3 -12 7 -39 9 -60 2 -21 4 -38 5 -38 1 0 3 -9 5 -20 3 -17 1 -17 -15 5
-11 14 -20 29 -20 33 0 4 -27 55 -60 114 -33 58 -60 109 -60 113 0 4 -7 13
-15 20 -8 7 -13 16 -10 20 4 7 -21 5 -73 -6 -21 -4 -22 -9 -17 -42 4 -20 8
-47 10 -59 2 -13 7 -42 11 -65 4 -24 8 -50 10 -58 9 -63 15 -98 18 -115 3 -11
5 -32 5 -47 1 -23 5 -26 29 -24 29 4 31 10 18 81 -4 22 -9 49 -10 60 -17 108
-22 143 -30 183 -3 12 -3 22 -1 22 2 0 32 -51 67 -112 35 -62 71 -126 80 -143
9 -16 20 -38 24 -48 5 -15 13 -18 37 -13 16 3 38 6 49 6 21 0 21 5 2 90 -3 14
-7 41 -9 60 -2 19 -6 44 -9 55 -2 12 -8 48 -12 80 -4 33 -9 63 -10 68 -1 4 -2
18 -3 32 -1 20 -6 25 -26 25 -14 0 -25 -1 -26 -2z"/>
<path d="M2199 1233 c0 -10 -2 -27 -4 -38 -2 -11 -7 -46 -10 -77 -3 -31 -7
-65 -9 -75 -3 -14 2 -19 17 -19 12 -1 47 -4 78 -8 49 -7 57 -6 63 10 9 24 -18
44 -59 44 -41 0 -45 5 -33 43 16 51 55 80 97 73 57 -9 75 -35 77 -113 1 -74
-17 -149 -45 -176 -35 -35 -118 -30 -160 11 -15 15 -26 8 -35 -25 -6 -18 1
-25 46 -46 29 -14 67 -23 83 -22 17 2 40 3 52 4 35 2 88 62 103 117 15 55 21
214 8 214 -4 0 -7 3 -6 8 4 12 -25 47 -54 66 -33 22 -97 23 -137 3 -28 -14
-31 -14 -36 4 -8 24 -35 25 -36 2z"/>
</g>
</svg>
